<svg xmlns="http://www.w3.org/2000/svg" width="76" height="16" fill="none"><path fill="#48ff91" stroke="#48ff91" stroke-width=".001" d="M6.102 3.606C6.947 2.09 7.37 1.334 8 1.334s1.053.757 1.898 2.272l.218.392c.24.43.36.645.547.787s.42.195.886.3l.425.097c1.64.37 2.46.556 2.654 1.183.195.628-.364 1.281-1.481 2.588l-.29.339c-.317.371-.476.557-.548.787-.071.23-.047.477.001.973l.044.451c.169 1.744.253 2.616-.257 3.004-.511.388-1.279.034-2.814-.673l-.397-.183c-.437-.2-.655-.301-.886-.301s-.45.1-.886.301l-.397.183c-1.535.707-2.303 1.06-2.814.673-.51-.388-.426-1.26-.257-3.004l.044-.451c.048-.496.072-.744 0-.973-.07-.23-.23-.416-.547-.787l-.29-.339c-1.118-1.307-1.676-1.96-1.481-2.588.195-.627 1.015-.812 2.654-1.183l.425-.096c.466-.106.699-.159.886-.3.187-.143.307-.358.547-.788zm15 0C21.947 2.09 22.37 1.334 23 1.334s1.053.757 1.898 2.272l.218.392c.24.43.36.645.547.787s.42.195.886.3l.425.097c1.64.37 2.46.556 2.654 1.183.195.628-.363 1.281-1.481 2.588l-.29.339c-.317.371-.476.557-.548.787-.071.23-.047.477.001.973l.044.451c.169 1.744.253 2.616-.257 3.004-.511.388-1.279.034-2.814-.673l-.397-.183c-.437-.2-.655-.301-.886-.301s-.45.1-.886.301l-.397.183c-1.535.707-2.303 1.06-2.814.673-.51-.388-.426-1.26-.257-3.004l.044-.451c.048-.496.072-.744 0-.973-.07-.23-.23-.416-.547-.787l-.29-.339c-1.118-1.307-1.677-1.96-1.481-2.588.195-.627 1.015-.812 2.654-1.183l.425-.096c.466-.106.698-.159.886-.3.187-.143.307-.358.547-.788zm15 0C36.947 2.09 37.37 1.334 38 1.334s1.053.757 1.898 2.272l.218.392c.24.43.36.645.547.787s.42.195.886.3l.425.097c1.64.37 2.46.556 2.654 1.183.196.628-.364 1.281-1.481 2.588l-.29.339c-.317.371-.476.557-.548.787-.071.23-.047.477.001.973l.044.451c.169 1.744.253 2.616-.257 3.004-.511.388-1.279.034-2.814-.673l-.397-.183c-.437-.2-.655-.301-.886-.301s-.45.1-.886.301l-.397.183c-1.535.707-2.303 1.06-2.814.673-.51-.388-.426-1.26-.257-3.004l.044-.451c.048-.496.072-.744 0-.973-.07-.23-.23-.416-.547-.787l-.29-.339c-1.118-1.307-1.677-1.96-1.481-2.588.195-.627 1.015-.812 2.654-1.183l.425-.096c.466-.106.699-.159.886-.3.187-.143.307-.358.547-.788zm15 0C51.947 2.09 52.37 1.334 53 1.334s1.053.757 1.898 2.272l.218.392c.24.43.36.645.547.787s.42.195.886.3l.425.097c1.64.37 2.46.556 2.654 1.183.196.628-.364 1.281-1.481 2.588l-.29.339c-.317.371-.476.557-.548.787-.071.23-.047.477.001.973l.044.451c.169 1.744.253 2.616-.257 3.004-.511.388-1.279.034-2.814-.673l-.397-.183c-.437-.2-.655-.301-.886-.301s-.45.1-.886.301l-.397.183c-1.535.707-2.303 1.06-2.814.673-.51-.388-.426-1.26-.257-3.004l.044-.451c.048-.496.072-.744 0-.973-.07-.23-.23-.416-.547-.787l-.29-.339c-1.117-1.307-1.677-1.96-1.481-2.588.195-.627 1.015-.812 2.654-1.183l.425-.096c.466-.106.699-.159.886-.3.187-.143.307-.358.547-.788zm15 0C66.946 2.09 67.37 1.334 68 1.334s1.053.757 1.898 2.272l.218.392c.24.43.36.645.547.787s.42.195.886.3l.425.097c1.64.37 2.46.556 2.654 1.183.195.628-.364 1.281-1.481 2.588l-.29.339c-.317.371-.476.557-.548.787-.071.23-.047.477.001.973l.044.451c.169 1.744.253 2.616-.257 3.004-.511.388-1.279.034-2.814-.673l-.397-.183c-.437-.2-.655-.301-.886-.301s-.45.1-.886.301l-.397.183c-1.535.707-2.303 1.06-2.814.673-.51-.388-.426-1.26-.257-3.004l.044-.451c.048-.496.072-.744 0-.973-.07-.23-.23-.416-.547-.787l-.29-.339c-1.117-1.307-1.677-1.96-1.481-2.588.195-.627 1.015-.812 2.654-1.183l.425-.096c.466-.106.699-.159.886-.3.187-.143.307-.358.547-.788z"/></svg>